# xmcd
#
# Track frame offsets: 
#        182
#        24092
#        37657
#        53670
#        71685
#        86720
#        118547
#        133410
#        165475
#        180267
#        212870
#
# Disc length: 3098 seconds
#
# Revision: 2
# Processed by: cddbd v1.5.2PL0 Copyright (c) Steve Scherf et al.
# Submitted via: ExactAudioCopyFreeDBPlugin 1.0
#
DISCID=890c180b
DTITLE=James Brown - 70's Funk Classics
DYEAR=1995
DGENRE=Soul
TTITLE0=Sex Machine
TTITLE1=Super Bad, Part 1
TTITLE2=The Payback (edited version)
TTITLE3=Funky President (People It's Bad)
TTITLE4=Escape-ism
TTITLE5=Funky Drummer
TTITLE6=Make it Funky
TTITLE7=Get Up, Get Into It, Get Involved
TTITLE8=Think '73
TTITLE9=Ain't it Funky Now
TTITLE10=My Thang
EXTD=
EXTT0=
EXTT1=
EXTT2=
EXTT3=
EXTT4=
EXTT5=
EXTT6=
EXTT7=
EXTT8=
EXTT9=
EXTT10=
PLAYORDER=
